<svg id="social-icon" xmlns="http://www.w3.org/2000/svg" xmlns:xlink="http://www.w3.org/1999/xlink" width="80" height="80" viewBox="0 0 80 80">
  <defs>
    <clipPath id="clip-path">
      <rect id="Rectangle_5" data-name="Rectangle 5" width="80" height="80" fill="#fff"/>
    </clipPath>
  </defs>
  <g id="Group_2" data-name="Group 2" clip-path="url(#clip-path)">
    <path id="Path_3" data-name="Path 3" d="M89.326,38.447l-.315-.02c-.593-.036-1.187-.063-1.8-.066a15.9,15.9,0,0,0-2.253.137,11.34,11.34,0,0,0-5.463,2.184,10.3,10.3,0,0,0-3.264,4.443,14.929,14.929,0,0,0-.96,5.048c0,.13-.005.26-.005.389q-.039,1.639-.079,3.276L75.1,57.113l-3.9-.015-3.9-.016q-.042,1.671-.082,3.343Q67.159,63.21,67.092,66l2.174.009,2.2.008,1.693.008,1.721.008q-.1,4.045-.2,8.088L74.359,87.6a30.364,30.364,0,0,0,4.773.395,31.066,31.066,0,0,0,4.807-.355q.1-4.043.2-8.088.065-2.7.131-5.393.1-4.045.2-8.088l1.98.009,1.94.008,1.563.006,1.65.008q.8-4.454,1.59-8.911l-2.584-.01L88,57.168l-1.62-.007-1.693-.007q.024-1.024.049-2.046t.05-2.045q.016-.682.032-1.364c0-.071,0-.141,0-.213a7.047,7.047,0,0,1,.18-1.48,4.287,4.287,0,0,1,1.522-2.45,5.2,5.2,0,0,1,3-.967l.368-.007c.48-.006.96-.006,1.49,0l.412,0,.433,0,.452,0,.41,0H93.8q.018-.709.035-1.419.04-1.656.08-3.312.034-1.418.07-2.839c-1.508-.26-3.031-.449-4.663-.572" transform="translate(-40.54 -23.178)" fill="#fff"/>
    <path id="Path_4" data-name="Path 4" d="M78.238,27.7l-.723-1.69-.1-.268L76.9,24.362l-.085.009c-.4-.936-.816-1.893-1.327-2.829A40.135,40.135,0,0,0,55.126,2.958a39.98,39.98,0,0,0-47.5,13.548,41.787,41.787,0,0,0-5.33,10.031l-.035.094-.025.1c-.082.316-.158.567-.238.791l-.01.028a39.833,39.833,0,0,0-1.955,10.9v.018A40.245,40.245,0,0,0,4.619,58.7l.012.023a40.64,40.64,0,0,0,7.679,10.124,40.007,40.007,0,0,0,62.053-8.383l.03.008.7-1.275a40.222,40.222,0,0,0,3-31.463Zm-2.832-1.219v.005l-.1.035Zm.758,14.869a36.355,36.355,0,0,1-3.806,14.874l-.619,1.147A36.41,36.41,0,0,1,46.329,75.632l-.015,0a36.219,36.219,0,0,1-12.624,0l-.012,0A36.053,36.053,0,0,1,14.95,66.106l-.014-.014a36.849,36.849,0,0,1-6.954-9.175A36.441,36.441,0,0,1,3.834,38.611a36.044,36.044,0,0,1,1.753-9.829c.106-.3.2-.615.3-.989a37.917,37.917,0,0,1,4.8-9.034l.01-.012a36.187,36.187,0,0,1,61.416,4.564l.022.041a32.082,32.082,0,0,1,1.372,2.981c.114.271.228.543.344.813l.015-.006a36.882,36.882,0,0,1,2.293,14.212" transform="translate(0)" fill="#fff"/>
  </g>
</svg>
